{
    "asset" : {
        "generator" : "Khronos glTF Blender I/O v1.6.16",
        "version" : "2.0"
    },
    "extensionsUsed" : [
        "KHR_materials_clearcoat",
        "KHR_materials_transmission"
    ],
    "scene" : 0,
    "scenes" : [
        {
            "name" : "Scene",
            "nodes" : [
                0,
                1,
                2,
                3
            ]
        }
    ],
    "nodes" : [
        {
            "mesh" : 0,
            "name" : "Base",
            "scale" : [
                0.9996940493583679,
                0.9996940493583679,
                0.9996940493583679
            ]
        },
        {
            "mesh" : 1,
            "name" : "Glass",
            "scale" : [
                0.9996940493583679,
                0.9996940493583679,
                0.9996940493583679
            ]
        },
        {
            "mesh" : 2,
            "name" : "Rot",
            "scale" : [
                0.9996940493583679,
                0.9996940493583679,
                0.9996940493583679
            ],
            "translation" : [
                0,
                13,
                0
            ]
        },
        {
            "mesh" : 3,
            "name" : "Bulb",
            "translation" : [
                0,
                13,
                0
            ]
        }
    ],
    "materials" : [
        {
            "doubleSided" : true,
            "name" : "Metal",
            "pbrMetallicRoughness" : {
                "baseColorFactor" : [
                    0.125490203499794,
                    0.125490203499794,
                    0.125490203499794,
                    1
                ],
                "roughnessFactor" : 0.3564227819442749
            }
        },
        {
            "alphaMode" : "BLEND",
            "doubleSided" : true,
            "emissiveFactor" : [
                0.010376284830272198,
                0,
                0
            ],
            "extensions" : {
                "KHR_materials_clearcoat" : {
                    "clearcoatFactor" : 0.5,
                    "clearcoatRoughnessFactor" : 0.5
                },
                "KHR_materials_transmission" : {
                    "transmissionFactor" : 1
                }
            },
            "name" : "Glass",
            "pbrMetallicRoughness" : {
                "baseColorFactor" : [
                    0.03954625129699707,
                    0,
                    0,
                    0.4145454466342926
                ],
                "roughnessFactor" : 0.10000000149011612
            }
        },
        {
            "doubleSided" : true,
            "emissiveFactor" : [
                1,
                1,
                1
            ],
            "name" : "Bulb",
            "pbrMetallicRoughness" : {}
        }
    ],
    "meshes" : [
        {
            "name" : "Mesh",
            "primitives" : [
                {
                    "attributes" : {
                        "POSITION" : 0,
                        "NORMAL" : 1,
                        "TEXCOORD_0" : 2
                    },
                    "indices" : 3,
                    "material" : 0
                }
            ]
        },
        {
            "name" : "Mesh.001",
            "primitives" : [
                {
                    "attributes" : {
                        "POSITION" : 4,
                        "NORMAL" : 5,
                        "TEXCOORD_0" : 6
                    },
                    "indices" : 7,
                    "material" : 1
                }
            ]
        },
        {
            "name" : "Mesh.003",
            "primitives" : [
                {
                    "attributes" : {
                        "POSITION" : 8,
                        "NORMAL" : 9,
                        "TEXCOORD_0" : 10
                    },
                    "indices" : 11,
                    "material" : 0
                }
            ]
        },
        {
            "name" : "Mesh.004",
            "primitives" : [
                {
                    "attributes" : {
                        "POSITION" : 12,
                        "NORMAL" : 13,
                        "TEXCOORD_0" : 14
                    },
                    "indices" : 15,
                    "material" : 2
                }
            ]
        }
    ],
    "accessors" : [
        {
            "bufferView" : 0,
            "componentType" : 5126,
            "count" : 1228,
            "max" : [
                11.000861167907715,
                6.000000476837158,
                10.833733558654785
            ],
            "min" : [
                -11.000859260559082,
                0,
                -10.833733558654785
            ],
            "type" : "VEC3"
        },
        {
            "bufferView" : 1,
            "componentType" : 5126,
            "count" : 1228,
            "type" : "VEC3"
        },
        {
            "bufferView" : 2,
            "componentType" : 5126,
            "count" : 1228,
            "type" : "VEC2"
        },
        {
            "bufferView" : 3,
            "componentType" : 5123,
            "count" : 1674,
            "type" : "SCALAR"
        },
        {
            "bufferView" : 4,
            "componentType" : 5126,
            "count" : 704,
            "max" : [
                10.530789375305176,
                22.516902923583984,
                10.370803833007812
            ],
            "min" : [
                -10.530787467956543,
                5.2626953125,
                -10.370802879333496
            ],
            "type" : "VEC3"
        },
        {
            "bufferView" : 5,
            "componentType" : 5126,
            "count" : 704,
            "type" : "VEC3"
        },
        {
            "bufferView" : 6,
            "componentType" : 5126,
            "count" : 704,
            "type" : "VEC2"
        },
        {
            "bufferView" : 7,
            "componentType" : 5123,
            "count" : 4212,
            "type" : "SCALAR"
        },
        {
            "bufferView" : 8,
            "componentType" : 5126,
            "count" : 1406,
            "max" : [
                6.758676052093506,
                6.783976078033447,
                6.121666431427002
            ],
            "min" : [
                -6.7586774826049805,
                -10.67473030090332,
                -6.121107578277588
            ],
            "type" : "VEC3"
        },
        {
            "bufferView" : 9,
            "componentType" : 5126,
            "count" : 1406,
            "type" : "VEC3"
        },
        {
            "bufferView" : 10,
            "componentType" : 5126,
            "count" : 1406,
            "type" : "VEC2"
        },
        {
            "bufferView" : 11,
            "componentType" : 5123,
            "count" : 4128,
            "type" : "SCALAR"
        },
        {
            "bufferView" : 12,
            "componentType" : 5126,
            "count" : 2064,
            "max" : [
                0.8797996640205383,
                0.8797998428344727,
                4.357391357421875
            ],
            "min" : [
                -0.8798002600669861,
                -0.8797998428344727,
                -4.356575012207031
            ],
            "type" : "VEC3"
        },
        {
            "bufferView" : 13,
            "componentType" : 5126,
            "count" : 2064,
            "type" : "VEC3"
        },
        {
            "bufferView" : 14,
            "componentType" : 5126,
            "count" : 2064,
            "type" : "VEC2"
        },
        {
            "bufferView" : 15,
            "componentType" : 5123,
            "count" : 6432,
            "type" : "SCALAR"
        }
    ],
    "bufferViews" : [
        {
            "buffer" : 0,
            "byteLength" : 14736,
            "byteOffset" : 0
        },
        {
            "buffer" : 0,
            "byteLength" : 14736,
            "byteOffset" : 14736
        },
        {
            "buffer" : 0,
            "byteLength" : 9824,
            "byteOffset" : 29472
        },
        {
            "buffer" : 0,
            "byteLength" : 3348,
            "byteOffset" : 39296
        },
        {
            "buffer" : 0,
            "byteLength" : 8448,
            "byteOffset" : 42644
        },
        {
            "buffer" : 0,
            "byteLength" : 8448,
            "byteOffset" : 51092
        },
        {
            "buffer" : 0,
            "byteLength" : 5632,
            "byteOffset" : 59540
        },
        {
            "buffer" : 0,
            "byteLength" : 8424,
            "byteOffset" : 65172
        },
        {
            "buffer" : 0,
            "byteLength" : 16872,
            "byteOffset" : 73596
        },
        {
            "buffer" : 0,
            "byteLength" : 16872,
            "byteOffset" : 90468
        },
        {
            "buffer" : 0,
            "byteLength" : 11248,
            "byteOffset" : 107340
        },
        {
            "buffer" : 0,
            "byteLength" : 8256,
            "byteOffset" : 118588
        },
        {
            "buffer" : 0,
            "byteLength" : 24768,
            "byteOffset" : 126844
        },
        {
            "buffer" : 0,
            "byteLength" : 24768,
            "byteOffset" : 151612
        },
        {
            "buffer" : 0,
            "byteLength" : 16512,
            "byteOffset" : 176380
        },
        {
            "buffer" : 0,
            "byteLength" : 12864,
            "byteOffset" : 192892
        }
    ],
    "buffers" : [
        {
            "byteLength" : 205756,
            "uri" : "data:application/octet-stream;base64,"
        }
    ]
}
