{
    "asset" : {
        "generator" : "Khronos glTF Blender I/O v1.6.16",
        "version" : "2.0"
    },
    "extensionsUsed" : [
        "KHR_materials_transmission"
    ],
    "scene" : 0,
    "scenes" : [
        {
            "name" : "Scene",
            "nodes" : [
                0,
                1,
                2,
                3
            ]
        }
    ],
    "nodes" : [
        {
            "mesh" : 0,
            "name" : "Base",
            "scale" : [
                0.9996940493583679,
                0.9996940493583679,
                0.9996940493583679
            ]
        },
        {
            "mesh" : 1,
            "name" : "Glass",
            "scale" : [
                0.9996940493583679,
                0.9996940493583679,
                0.9996940493583679
            ],
            "translation" : [
                0,
                0,
                -2.741489887237549
            ]
        },
        {
            "mesh" : 2,
            "name" : "Rot",
            "scale" : [
                0.9996940493583679,
                0.9996940493583679,
                0.9996940493583679
            ],
            "translation" : [
                0,
                0,
                7.388289928436279
            ]
        },
        {
            "mesh" : 3,
            "name" : "Bulb",
            "translation" : [
                0,
                -3.5271100997924805,
                13.03561019897461
            ]
        }
    ],
    "materials" : [
        {
            "doubleSided" : true,
            "name" : "Metal",
            "pbrMetallicRoughness" : {
                "baseColorFactor" : [
                    0.125490203499794,
                    0.125490203499794,
                    0.125490203499794,
                    1
                ],
                "roughnessFactor" : 0.3564227819442749
            }
        },
        {
            "alphaMode" : "BLEND",
            "doubleSided" : true,
            "emissiveFactor" : [
                0.010376284830272198,
                0,
                0
            ],
            "extensions" : {
                "KHR_materials_transmission" : {
                    "transmissionFactor" : 1
                }
            },
            "name" : "Glass",
            "pbrMetallicRoughness" : {
                "baseColorFactor" : [
                    0.03954625129699707,
                    0,
                    0,
                    0.5
                ],
                "roughnessFactor" : 0.20369546115398407
            }
        },
        {
            "doubleSided" : true,
            "name" : "Bulb",
            "pbrMetallicRoughness" : {
                "metallicFactor" : 0,
                "roughnessFactor" : 0.5527864098548889
            }
        }
    ],
    "meshes" : [
        {
            "name" : "Mesh",
            "primitives" : [
                {
                    "attributes" : {
                        "POSITION" : 0,
                        "NORMAL" : 1,
                        "TEXCOORD_0" : 2
                    },
                    "indices" : 3,
                    "material" : 0
                }
            ]
        },
        {
            "name" : "Mesh.001",
            "primitives" : [
                {
                    "attributes" : {
                        "POSITION" : 4,
                        "NORMAL" : 5,
                        "TEXCOORD_0" : 6
                    },
                    "indices" : 7,
                    "material" : 1
                }
            ]
        },
        {
            "name" : "Mesh.003",
            "primitives" : [
                {
                    "attributes" : {
                        "POSITION" : 8,
                        "NORMAL" : 9,
                        "TEXCOORD_0" : 10
                    },
                    "indices" : 11,
                    "material" : 0
                }
            ]
        },
        {
            "name" : "Mesh.004",
            "primitives" : [
                {
                    "attributes" : {
                        "POSITION" : 12,
                        "NORMAL" : 13,
                        "TEXCOORD_0" : 14
                    },
                    "indices" : 15,
                    "material" : 2
                }
            ]
        }
    ],
    "accessors" : [
        {
            "bufferView" : 0,
            "componentType" : 5126,
            "count" : 1260,
            "max" : [
                11.000860214233398,
                10.833732604980469,
                6.000000476837158
            ],
            "min" : [
                -11.000860214233398,
                -10.833734512329102,
                0
            ],
            "type" : "VEC3"
        },
        {
            "bufferView" : 1,
            "componentType" : 5126,
            "count" : 1260,
            "type" : "VEC3"
        },
        {
            "bufferView" : 2,
            "componentType" : 5126,
            "count" : 1260,
            "type" : "VEC2"
        },
        {
            "bufferView" : 3,
            "componentType" : 5123,
            "count" : 1674,
            "type" : "SCALAR"
        },
        {
            "bufferView" : 4,
            "componentType" : 5126,
            "count" : 704,
            "max" : [
                10.53078842163086,
                10.37080192565918,
                25.259231567382812
            ],
            "min" : [
                -10.53078842163086,
                -10.370804786682129,
                8.005023956298828
            ],
            "type" : "VEC3"
        },
        {
            "bufferView" : 5,
            "componentType" : 5126,
            "count" : 704,
            "type" : "VEC3"
        },
        {
            "bufferView" : 6,
            "componentType" : 5126,
            "count" : 704,
            "type" : "VEC2"
        },
        {
            "bufferView" : 7,
            "componentType" : 5123,
            "count" : 4212,
            "type" : "SCALAR"
        },
        {
            "bufferView" : 8,
            "componentType" : 5126,
            "count" : 1419,
            "max" : [
                6.758676052093506,
                6.121388912200928,
                12.433024406433105
            ],
            "min" : [
                -6.7586774826049805,
                -6.121385097503662,
                -5.02568244934082
            ],
            "type" : "VEC3"
        },
        {
            "bufferView" : 9,
            "componentType" : 5126,
            "count" : 1419,
            "type" : "VEC3"
        },
        {
            "bufferView" : 10,
            "componentType" : 5126,
            "count" : 1419,
            "type" : "VEC2"
        },
        {
            "bufferView" : 11,
            "componentType" : 5123,
            "count" : 4128,
            "type" : "SCALAR"
        },
        {
            "bufferView" : 12,
            "componentType" : 5126,
            "count" : 2078,
            "max" : [
                0.8797999620437622,
                7.883966445922852,
                0.879800021648407
            ],
            "min" : [
                -0.8797999620437622,
                -0.8299999833106995,
                -0.8797999024391174
            ],
            "type" : "VEC3"
        },
        {
            "bufferView" : 13,
            "componentType" : 5126,
            "count" : 2078,
            "type" : "VEC3"
        },
        {
            "bufferView" : 14,
            "componentType" : 5126,
            "count" : 2078,
            "type" : "VEC2"
        },
        {
            "bufferView" : 15,
            "componentType" : 5123,
            "count" : 6432,
            "type" : "SCALAR"
        }
    ],
    "bufferViews" : [
        {
            "buffer" : 0,
            "byteLength" : 15120,
            "byteOffset" : 0
        },
        {
            "buffer" : 0,
            "byteLength" : 15120,
            "byteOffset" : 15120
        },
        {
            "buffer" : 0,
            "byteLength" : 10080,
            "byteOffset" : 30240
        },
        {
            "buffer" : 0,
            "byteLength" : 3348,
            "byteOffset" : 40320
        },
        {
            "buffer" : 0,
            "byteLength" : 8448,
            "byteOffset" : 43668
        },
        {
            "buffer" : 0,
            "byteLength" : 8448,
            "byteOffset" : 52116
        },
        {
            "buffer" : 0,
            "byteLength" : 5632,
            "byteOffset" : 60564
        },
        {
            "buffer" : 0,
            "byteLength" : 8424,
            "byteOffset" : 66196
        },
        {
            "buffer" : 0,
            "byteLength" : 17028,
            "byteOffset" : 74620
        },
        {
            "buffer" : 0,
            "byteLength" : 17028,
            "byteOffset" : 91648
        },
        {
            "buffer" : 0,
            "byteLength" : 11352,
            "byteOffset" : 108676
        },
        {
            "buffer" : 0,
            "byteLength" : 8256,
            "byteOffset" : 120028
        },
        {
            "buffer" : 0,
            "byteLength" : 24936,
            "byteOffset" : 128284
        },
        {
            "buffer" : 0,
            "byteLength" : 24936,
            "byteOffset" : 153220
        },
        {
            "buffer" : 0,
            "byteLength" : 16624,
            "byteOffset" : 178156
        },
        {
            "buffer" : 0,
            "byteLength" : 12864,
            "byteOffset" : 194780
        }
    ],
    "buffers" : [
        {
            "byteLength" : 207644,
            "uri" : "data:application/octet-stream;base64,"
        }
    ]
}
